<svg width="512" height="512" viewBox="0 0 512 512" fill="none" xmlns="http://www.w3.org/2000/svg">
<g clip-path="url(#clip0)">
<path d="M507.606 371.054C487.368 350.817 463.464 335.898 436.559 326.713C431.49 324.981 425.883 326.086 421.849 329.608C420.092 331.142 355.416 392.634 260.125 367.246C258.797 366.867 257.413 366.67 256.007 366.67C254.601 366.67 253.2 366.867 251.873 367.246C156.582 392.634 91.907 331.142 90.149 329.608C86.115 326.087 80.508 324.982 75.439 326.713C48.534 335.898 24.63 350.817 4.392 371.054C1.581 373.868 0 377.691 0 381.669C0 385.647 1.581 389.462 4.394 392.275C39.413 427.294 85.973 446.58 135.497 446.58C180.177 446.58 222.444 430.88 256.001 402.093C289.558 430.88 331.825 446.58 376.505 446.58C426.029 446.58 472.589 427.294 507.608 392.275C510.421 389.462 512.002 385.647 512.002 381.669C512 377.691 510.419 373.868 507.606 371.054V371.054Z" fill="#9FC1F4"/>
<path d="M507.606 371.054C487.368 350.817 463.464 335.898 436.559 326.713C431.49 324.981 425.883 326.086 421.849 329.608C420.092 331.142 355.416 392.634 260.125 367.246C258.797 366.867 257.413 366.67 256.007 366.67L256 402.094C289.557 430.881 331.824 446.581 376.504 446.581C426.028 446.581 472.588 427.295 507.607 392.276C510.42 389.463 512.001 385.648 512.001 381.67C512 377.691 510.419 373.868 507.606 371.054V371.054Z" fill="#083DFA"/>
<path d="M494.299 231.516C462.278 223.005 428.281 222.334 395.96 229.582C390.73 230.755 386.523 234.629 384.925 239.746C377.951 262.067 360.777 302.122 318.933 334.23C300.008 348.752 278.852 359.455 256 366.091C233.148 359.455 211.993 348.752 193.067 334.23C151.223 302.122 134.049 262.066 127.075 239.746C125.477 234.63 121.27 230.755 116.04 229.582C83.718 222.334 49.722 223.004 17.701 231.516C11.101 233.092 6.194 239.033 6.194 246.115C6.194 247.427 6.366 248.733 6.706 250C22.026 307.141 59.433 350.349 103.016 375.508C145.703 400.158 200.26 410.943 256.001 397.138C311.742 410.942 366.299 400.158 408.986 375.508C452.569 350.349 489.975 307.141 505.296 250C505.636 248.733 505.808 247.427 505.808 246.115C505.806 239.033 500.899 233.092 494.299 231.516V231.516Z" fill="#C0D3F0"/>
<path d="M494.299 231.516C462.278 223.005 428.281 222.334 395.96 229.582C390.73 230.755 386.523 234.629 384.925 239.746C377.951 262.067 360.777 302.122 318.933 334.23C300.008 348.752 278.852 359.455 256 366.091V397.138C311.741 410.942 366.298 400.158 408.985 375.508C452.568 350.349 489.974 307.141 505.295 250C505.635 248.733 505.807 247.427 505.807 246.115C505.806 239.033 500.899 233.092 494.299 231.516V231.516Z" fill="#9FC1F4"/>
<path d="M416.093 125.596C413.948 117.595 405.727 112.848 397.723 114.991C361.783 124.617 328.606 143.339 301.781 169.133C297.918 172.847 296.33 178.34 297.615 183.542C302.449 203.112 311.29 251.369 288.322 306.82C280.322 326.134 269.475 343.822 256.001 359.589C242.527 343.822 231.679 326.134 223.68 306.82C200.711 251.369 209.553 203.112 214.387 183.542C215.672 178.34 214.084 172.847 210.221 169.133C183.395 143.339 150.219 124.617 114.279 114.991C106.275 112.849 98.054 117.595 95.909 125.596C79.537 186.674 91.084 246.659 117.973 293.227C144.861 339.798 191.029 379.785 252.11 396.158C253.401 396.504 254.705 396.67 255.994 396.67C257.283 396.67 258.603 396.504 259.894 396.158C320.974 379.786 367.143 339.798 394.031 293.227C420.918 246.658 432.465 186.674 416.093 125.596V125.596Z" fill="#9FC1F4"/>
<path d="M416.093 125.596C413.948 117.595 405.727 112.848 397.723 114.991C361.783 124.617 328.606 143.339 301.781 169.133C297.918 172.847 296.33 178.34 297.615 183.542C302.449 203.112 311.29 251.369 288.322 306.82C280.322 326.134 269.475 343.822 256.001 359.589L255.993 396.67C257.282 396.67 258.602 396.504 259.893 396.158C320.973 379.786 367.142 339.798 394.03 293.227C420.918 246.658 432.465 186.674 416.093 125.596V125.596Z" fill="#083DFA"/>
<path d="M256 396.669C252.022 396.669 248.198 395.088 245.385 392.275C206.126 353.017 178.605 296.3 178.605 231.044C178.605 165.817 206.096 109.101 245.385 69.813C248.198 67 252.013 65.4189 255.991 65.4189C259.969 65.4189 263.793 67 266.606 69.813C305.874 109.08 333.386 165.788 333.386 231.044C333.386 296.315 305.853 353.029 266.606 392.275C263.793 395.089 259.978 396.669 256 396.669Z" fill="#C0D3F0"/>
<path d="M256 396.669L255.992 65.4189C259.97 65.4189 263.794 67 266.607 69.813C305.875 109.08 333.387 165.788 333.387 231.044C333.387 296.315 305.854 353.029 266.607 392.275C263.793 395.089 259.978 396.669 256 396.669V396.669Z" fill="#9FC1F4"/>
</g>
<defs>
<clipPath id="clip0">
<rect width="512" height="512" fill="white"/>
</clipPath>
</defs>
</svg>
